<svg width="42" height="115" viewBox="0 0 42 115" fill="none" xmlns="http://www.w3.org/2000/svg">
<g opacity="0.3">
<mask id="mask0_25_14" style="mask-type:alpha" maskUnits="userSpaceOnUse" x="0" y="0" width="12" height="11">
<path d="M6.0716 10.425C8.95916 10.425 11.3 8.09121 11.3 5.21245C11.3 2.33368 8.95916 0 6.0716 0C3.18404 0 0.843201 2.33368 0.843201 5.21245C0.843201 8.09121 3.18404 10.425 6.0716 10.425Z" fill="url(#paint0_linear_25_14)"/>
</mask>
<g mask="url(#mask0_25_14)">
<path d="M6.0716 10.425C8.95916 10.425 11.3 8.09121 11.3 5.21245C11.3 2.33368 8.95916 0 6.0716 0C3.18404 0 0.843201 2.33368 0.843201 5.21245C0.843201 8.09121 3.18404 10.425 6.0716 10.425Z" fill="url(#paint1_linear_25_14)"/>
</g>
<mask id="mask1_25_14" style="mask-type:alpha" maskUnits="userSpaceOnUse" x="31" y="0" width="11" height="11">
<path d="M36.3526 10.425C39.2402 10.425 41.581 8.09121 41.581 5.21245C41.581 2.33368 39.2402 0 36.3526 0C33.4651 0 31.1243 2.33368 31.1243 5.21245C31.1243 8.09121 33.4651 10.425 36.3526 10.425Z" fill="url(#paint2_linear_25_14)"/>
</mask>
<g mask="url(#mask1_25_14)">
<path d="M36.3526 10.425C39.2402 10.425 41.581 8.09121 41.581 5.21245C41.581 2.33368 39.2402 0 36.3526 0C33.4651 0 31.1243 2.33368 31.1243 5.21245C31.1243 8.09121 33.4651 10.425 36.3526 10.425Z" fill="url(#paint3_linear_25_14)"/>
</g>
<mask id="mask2_25_14" style="mask-type:alpha" maskUnits="userSpaceOnUse" x="0" y="26" width="12" height="11">
<path d="M6.0716 36.5958C8.95916 36.5958 11.3 34.2621 11.3 31.3834C11.3 28.5046 8.95916 26.171 6.0716 26.171C3.18404 26.171 0.843201 28.5046 0.843201 31.3834C0.843201 34.2621 3.18404 36.5958 6.0716 36.5958Z" fill="url(#paint4_linear_25_14)"/>
</mask>
<g mask="url(#mask2_25_14)">
<path d="M6.0716 36.5958C8.95916 36.5958 11.3 34.2621 11.3 31.3834C11.3 28.5046 8.95916 26.171 6.0716 26.171C3.18404 26.171 0.843201 28.5046 0.843201 31.3834C0.843201 34.2621 3.18404 36.5958 6.0716 36.5958Z" fill="url(#paint5_linear_25_14)"/>
</g>
<mask id="mask3_25_14" style="mask-type:alpha" maskUnits="userSpaceOnUse" x="31" y="26" width="11" height="11">
<path d="M36.3526 36.5958C39.2402 36.5958 41.581 34.2621 41.581 31.3834C41.581 28.5046 39.2402 26.171 36.3526 26.171C33.4651 26.171 31.1243 28.5046 31.1243 31.3834C31.1243 34.2621 33.4651 36.5958 36.3526 36.5958Z" fill="url(#paint6_linear_25_14)"/>
</mask>
<g mask="url(#mask3_25_14)">
<path d="M36.3526 36.5958C39.2402 36.5958 41.581 34.2621 41.581 31.3834C41.581 28.5046 39.2402 26.171 36.3526 26.171C33.4651 26.171 31.1243 28.5046 31.1243 31.3834C31.1243 34.2621 33.4651 36.5958 36.3526 36.5958Z" fill="url(#paint7_linear_25_14)"/>
</g>
<mask id="mask4_25_14" style="mask-type:alpha" maskUnits="userSpaceOnUse" x="0" y="52" width="12" height="11">
<path d="M6.0716 62.7125C8.95916 62.7125 11.3 60.3788 11.3 57.5C11.3 54.6212 8.95916 52.2875 6.0716 52.2875C3.18404 52.2875 0.843201 54.6212 0.843201 57.5C0.843201 60.3788 3.18404 62.7125 6.0716 62.7125Z" fill="url(#paint8_linear_25_14)"/>
</mask>
<g mask="url(#mask4_25_14)">
<path d="M6.0716 62.7125C8.95916 62.7125 11.3 60.3788 11.3 57.5C11.3 54.6212 8.95916 52.2875 6.0716 52.2875C3.18404 52.2875 0.843201 54.6212 0.843201 57.5C0.843201 60.3788 3.18404 62.7125 6.0716 62.7125Z" fill="url(#paint9_linear_25_14)"/>
</g>
<mask id="mask5_25_14" style="mask-type:alpha" maskUnits="userSpaceOnUse" x="31" y="52" width="11" height="11">
<path d="M36.3526 62.7125C39.2402 62.7125 41.581 60.3788 41.581 57.5C41.581 54.6212 39.2402 52.2875 36.3526 52.2875C33.4651 52.2875 31.1243 54.6212 31.1243 57.5C31.1243 60.3788 33.4651 62.7125 36.3526 62.7125Z" fill="url(#paint10_linear_25_14)"/>
</mask>
<g mask="url(#mask5_25_14)">
<path d="M36.3526 62.7125C39.2402 62.7125 41.581 60.3788 41.581 57.5C41.581 54.6212 39.2402 52.2875 36.3526 52.2875C33.4651 52.2875 31.1243 54.6212 31.1243 57.5C31.1243 60.3788 33.4651 62.7125 36.3526 62.7125Z" fill="url(#paint11_linear_25_14)"/>
</g>
<mask id="mask6_25_14" style="mask-type:alpha" maskUnits="userSpaceOnUse" x="0" y="78" width="12" height="11">
<path d="M6.0716 88.8834C8.95916 88.8834 11.3 86.5496 11.3 83.6709C11.3 80.7921 8.95916 78.4584 6.0716 78.4584C3.18404 78.4584 0.843201 80.7921 0.843201 83.6709C0.843201 86.5496 3.18404 88.8834 6.0716 88.8834Z" fill="url(#paint12_linear_25_14)"/>
</mask>
<g mask="url(#mask6_25_14)">
<path d="M6.0716 88.8834C8.95916 88.8834 11.3 86.5496 11.3 83.6709C11.3 80.7921 8.95916 78.4584 6.0716 78.4584C3.18404 78.4584 0.843201 80.7921 0.843201 83.6709C0.843201 86.5496 3.18404 88.8834 6.0716 88.8834Z" fill="url(#paint13_linear_25_14)"/>
</g>
<mask id="mask7_25_14" style="mask-type:alpha" maskUnits="userSpaceOnUse" x="31" y="78" width="11" height="11">
<path d="M36.3526 88.8834C39.2402 88.8834 41.581 86.5496 41.581 83.6709C41.581 80.7921 39.2402 78.4584 36.3526 78.4584C33.4651 78.4584 31.1243 80.7921 31.1243 83.6709C31.1243 86.5496 33.4651 88.8834 36.3526 88.8834Z" fill="url(#paint14_linear_25_14)"/>
</mask>
<g mask="url(#mask7_25_14)">
<path d="M36.3526 88.8834C39.2402 88.8834 41.581 86.5496 41.581 83.6709C41.581 80.7921 39.2402 78.4584 36.3526 78.4584C33.4651 78.4584 31.1243 80.7921 31.1243 83.6709C31.1243 86.5496 33.4651 88.8834 36.3526 88.8834Z" fill="url(#paint15_linear_25_14)"/>
</g>
<mask id="mask8_25_14" style="mask-type:alpha" maskUnits="userSpaceOnUse" x="0" y="104" width="12" height="11">
<path d="M6.0716 115C8.95916 115 11.3 112.666 11.3 109.788C11.3 106.909 8.95916 104.575 6.0716 104.575C3.18404 104.575 0.843201 106.909 0.843201 109.788C0.843201 112.666 3.18404 115 6.0716 115Z" fill="url(#paint16_linear_25_14)"/>
</mask>
<g mask="url(#mask8_25_14)">
<path d="M6.0716 115C8.95916 115 11.3 112.666 11.3 109.788C11.3 106.909 8.95916 104.575 6.0716 104.575C3.18404 104.575 0.843201 106.909 0.843201 109.788C0.843201 112.666 3.18404 115 6.0716 115Z" fill="url(#paint17_linear_25_14)"/>
</g>
<mask id="mask9_25_14" style="mask-type:alpha" maskUnits="userSpaceOnUse" x="31" y="104" width="11" height="11">
<path d="M36.3526 115C39.2402 115 41.581 112.666 41.581 109.788C41.581 106.909 39.2402 104.575 36.3526 104.575C33.4651 104.575 31.1243 106.909 31.1243 109.788C31.1243 112.666 33.4651 115 36.3526 115Z" fill="url(#paint18_linear_25_14)"/>
</mask>
<g mask="url(#mask9_25_14)">
<path d="M36.3526 115C39.2402 115 41.581 112.666 41.581 109.788C41.581 106.909 39.2402 104.575 36.3526 104.575C33.4651 104.575 31.1243 106.909 31.1243 109.788C31.1243 112.666 33.4651 115 36.3526 115Z" fill="url(#paint19_linear_25_14)"/>
</g>
</g>
<defs>
<linearGradient id="paint0_linear_25_14" x1="43.6091" y1="100.259" x2="-27.7925" y2="-81.5444" gradientUnits="userSpaceOnUse">
<stop/>
<stop offset="1" stop-color="white"/>
</linearGradient>
<linearGradient id="paint1_linear_25_14" x1="43.6091" y1="100.259" x2="-27.7925" y2="-81.5444" gradientUnits="userSpaceOnUse">
<stop stop-color="#97C3F9"/>
<stop offset="1" stop-color="#93C1F9"/>
</linearGradient>
<linearGradient id="paint2_linear_25_14" x1="69.8135" y1="89.9679" x2="-1.58815" y2="-91.8359" gradientUnits="userSpaceOnUse">
<stop/>
<stop offset="1" stop-color="white"/>
</linearGradient>
<linearGradient id="paint3_linear_25_14" x1="69.8135" y1="89.9679" x2="-1.58815" y2="-91.8359" gradientUnits="userSpaceOnUse">
<stop stop-color="#97C3F9"/>
<stop offset="1" stop-color="#93C1F9"/>
</linearGradient>
<linearGradient id="paint4_linear_25_14" x1="34.6667" y1="103.771" x2="-36.7337" y2="-78.0318" gradientUnits="userSpaceOnUse">
<stop/>
<stop offset="1" stop-color="white"/>
</linearGradient>
<linearGradient id="paint5_linear_25_14" x1="34.6667" y1="103.771" x2="-36.7337" y2="-78.0318" gradientUnits="userSpaceOnUse">
<stop stop-color="#97C3F9"/>
<stop offset="1" stop-color="#93C1F9"/>
</linearGradient>
<linearGradient id="paint6_linear_25_14" x1="60.8711" y1="93.4794" x2="-10.5293" y2="-88.3231" gradientUnits="userSpaceOnUse">
<stop/>
<stop offset="1" stop-color="white"/>
</linearGradient>
<linearGradient id="paint7_linear_25_14" x1="60.8711" y1="93.4794" x2="-10.5293" y2="-88.3231" gradientUnits="userSpaceOnUse">
<stop stop-color="#97C3F9"/>
<stop offset="1" stop-color="#93C1F9"/>
</linearGradient>
<linearGradient id="paint8_linear_25_14" x1="25.7243" y1="107.283" x2="-45.6773" y2="-74.5205" gradientUnits="userSpaceOnUse">
<stop/>
<stop offset="1" stop-color="white"/>
</linearGradient>
<linearGradient id="paint9_linear_25_14" x1="25.7243" y1="107.283" x2="-45.6773" y2="-74.5205" gradientUnits="userSpaceOnUse">
<stop stop-color="#97C3F9"/>
<stop offset="1" stop-color="#93C1F9"/>
</linearGradient>
<linearGradient id="paint10_linear_25_14" x1="51.9287" y1="96.9919" x2="-19.4729" y2="-84.8119" gradientUnits="userSpaceOnUse">
<stop/>
<stop offset="1" stop-color="white"/>
</linearGradient>
<linearGradient id="paint11_linear_25_14" x1="51.9287" y1="96.9919" x2="-19.4729" y2="-84.8119" gradientUnits="userSpaceOnUse">
<stop stop-color="#97C3F9"/>
<stop offset="1" stop-color="#93C1F9"/>
</linearGradient>
<linearGradient id="paint12_linear_25_14" x1="16.782" y1="110.795" x2="-54.6196" y2="-71.0084" gradientUnits="userSpaceOnUse">
<stop/>
<stop offset="1" stop-color="white"/>
</linearGradient>
<linearGradient id="paint13_linear_25_14" x1="16.782" y1="110.795" x2="-54.6196" y2="-71.0084" gradientUnits="userSpaceOnUse">
<stop stop-color="#97C3F9"/>
<stop offset="1" stop-color="#93C1F9"/>
</linearGradient>
<linearGradient id="paint14_linear_25_14" x1="42.9863" y1="100.504" x2="-28.4153" y2="-81.3" gradientUnits="userSpaceOnUse">
<stop/>
<stop offset="1" stop-color="white"/>
</linearGradient>
<linearGradient id="paint15_linear_25_14" x1="42.9863" y1="100.504" x2="-28.4153" y2="-81.3" gradientUnits="userSpaceOnUse">
<stop stop-color="#97C3F9"/>
<stop offset="1" stop-color="#93C1F9"/>
</linearGradient>
<linearGradient id="paint16_linear_25_14" x1="7.83966" y1="114.307" x2="-63.562" y2="-67.4964" gradientUnits="userSpaceOnUse">
<stop/>
<stop offset="1" stop-color="white"/>
</linearGradient>
<linearGradient id="paint17_linear_25_14" x1="7.83966" y1="114.307" x2="-63.562" y2="-67.4964" gradientUnits="userSpaceOnUse">
<stop stop-color="#97C3F9"/>
<stop offset="1" stop-color="#93C1F9"/>
</linearGradient>
<linearGradient id="paint18_linear_25_14" x1="34.044" y1="104.016" x2="-37.3576" y2="-77.7879" gradientUnits="userSpaceOnUse">
<stop/>
<stop offset="1" stop-color="white"/>
</linearGradient>
<linearGradient id="paint19_linear_25_14" x1="34.044" y1="104.016" x2="-37.3576" y2="-77.7879" gradientUnits="userSpaceOnUse">
<stop stop-color="#97C3F9"/>
<stop offset="1" stop-color="#93C1F9"/>
</linearGradient>
</defs>
</svg>
